<svg width="13" height="11" viewBox="0 0 13 11" fill="none" xmlns="http://www.w3.org/2000/svg">
<path d="M11.8731 9.70745C11.8731 9.8055 11.7749 9.95258 11.6277 9.95258H1.2741C1.17596 9.95258 1.02875 9.85453 1.02875 9.70745V2.79492L5.64127 7.40327C5.83755 7.59937 6.13197 7.74645 6.47545 7.74645C6.76987 7.74645 7.06428 7.6484 7.30963 7.40327L11.9222 2.79492L11.8731 9.70745ZM1.02875 1.22611C1.02875 1.12806 1.12689 0.98099 1.2741 0.98099H11.6768C11.7749 0.98099 11.9222 1.07904 11.9222 1.22611V1.37319L6.57359 6.6679C6.52452 6.71692 6.42638 6.71692 6.32824 6.6679L1.02875 1.37319V1.22611ZM11.6768 0.000488281H1.2741C0.587126 0.000488281 0.0473633 0.539764 0.0473633 1.22611V1.76539V9.65843C0.0473633 10.3448 0.587126 10.8841 1.2741 10.8841H11.6768C12.3638 10.8841 12.9035 10.3448 12.9035 9.65843V1.81442V1.27514C12.8545 0.539763 12.3147 0.000488281 11.6768 0.000488281Z" fill="white"/>
</svg>
