<svg width="11" height="16" viewBox="0 0 11 16" fill="none" xmlns="http://www.w3.org/2000/svg">
<path d="M10.873 12.9033C10.873 13.1484 10.824 13.4426 10.7258 13.6877C10.7258 13.7367 10.7258 13.7367 10.6768 13.7858C10.137 15.0604 8.66493 15.6977 7.38912 15.1585C2.1387 13.0014 -0.412908 7.0203 1.74614 1.77461C2.28591 0.499961 3.75799 -0.137364 5.03379 0.401912C5.08286 0.401912 5.08286 0.401911 5.13193 0.450936C5.37728 0.548986 5.62263 0.696062 5.8189 0.892162L5.13193 5.05929L3.21823 5.10832C3.02195 7.65762 4.10148 10.1579 6.06425 11.8248L7.43819 10.5011L10.873 12.9033Z" fill="white"/>
</svg>
