<svg width="521" height="204" viewBox="0 0 521 204" fill="none" xmlns="http://www.w3.org/2000/svg">
<path d="M14.832 26H12.24L4.488 17.312V26H2.328V8.864H4.488V17.168L12.048 8.864H14.496L7.056 17.192L14.832 26ZM32.3672 17.408C32.3672 18.736 32.1992 19.944 31.8632 21.032C31.5272 22.104 31.0232 23.032 30.3512 23.816C29.6952 24.6 28.8712 25.2 27.8792 25.616C26.9032 26.032 25.7672 26.24 24.4712 26.24C23.1272 26.24 21.9592 26.032 20.9672 25.616C19.9752 25.184 19.1512 24.584 18.4952 23.816C17.8392 23.032 17.3512 22.096 17.0312 21.008C16.7112 19.92 16.5512 18.712 16.5512 17.384C16.5512 15.624 16.8392 14.088 17.4152 12.776C17.9912 11.464 18.8632 10.44 20.0312 9.704C21.2152 8.968 22.7032 8.6 24.4952 8.6C26.2072 8.6 27.6472 8.968 28.8152 9.704C29.9832 10.424 30.8632 11.448 31.4552 12.776C32.0632 14.088 32.3672 15.632 32.3672 17.408ZM18.8312 17.408C18.8312 18.848 19.0312 20.088 19.4312 21.128C19.8312 22.168 20.4472 22.968 21.2792 23.528C22.1272 24.088 23.1912 24.368 24.4712 24.368C25.7672 24.368 26.8232 24.088 27.6392 23.528C28.4712 22.968 29.0872 22.168 29.4872 21.128C29.8872 20.088 30.0872 18.848 30.0872 17.408C30.0872 15.248 29.6392 13.56 28.7432 12.344C27.8472 11.112 26.4312 10.496 24.4952 10.496C23.1992 10.496 22.1272 10.776 21.2792 11.336C20.4472 11.88 19.8312 12.672 19.4312 13.712C19.0312 14.736 18.8312 15.968 18.8312 17.408ZM49.9892 26H47.8292V18.008H39.0452V26H36.8852V8.864H39.0452V16.112H47.8292V8.864H49.9892V26ZM62.7383 10.52C61.8263 10.52 61.0023 10.68 60.2663 11C59.5303 11.304 58.9063 11.76 58.3943 12.368C57.8823 12.96 57.4903 13.688 57.2183 14.552C56.9462 15.4 56.8102 16.36 56.8102 17.432C56.8102 18.84 57.0263 20.064 57.4583 21.104C57.9063 22.144 58.5623 22.944 59.4263 23.504C60.3063 24.064 61.4023 24.344 62.7143 24.344C63.4663 24.344 64.1783 24.28 64.8503 24.152C65.5223 24.024 66.1783 23.864 66.8183 23.672V25.544C66.1783 25.784 65.5143 25.96 64.8263 26.072C64.1543 26.184 63.3463 26.24 62.4023 26.24C60.6583 26.24 59.2023 25.88 58.0343 25.16C56.8663 24.44 55.9862 23.416 55.3942 22.088C54.8182 20.76 54.5302 19.2 54.5302 17.408C54.5302 16.112 54.7062 14.928 55.0582 13.856C55.4262 12.784 55.9542 11.856 56.6422 11.072C57.3462 10.288 58.2102 9.688 59.2342 9.272C60.2582 8.84 61.4343 8.624 62.7623 8.624C63.6423 8.624 64.4903 8.712 65.3063 8.888C66.1223 9.064 66.8503 9.312 67.4903 9.632L66.6262 11.456C66.0982 11.216 65.5063 11 64.8503 10.808C64.2103 10.616 63.5063 10.52 62.7383 10.52ZM82.0303 26L79.9663 20.696H73.1743L71.1343 26H68.9503L75.6463 8.792H77.5903L84.2623 26H82.0303ZM77.3983 13.592C77.3503 13.464 77.2703 13.232 77.1583 12.896C77.0463 12.56 76.9343 12.216 76.8223 11.864C76.7263 11.496 76.6463 11.216 76.5823 11.024C76.5023 11.344 76.4143 11.672 76.3183 12.008C76.2383 12.328 76.1503 12.624 76.0543 12.896C75.9743 13.168 75.9023 13.4 75.8383 13.592L73.8943 18.776H79.3183L77.3983 13.592ZM99.6624 26H97.5024V10.76H92.0784C91.9664 11.64 91.8464 12.568 91.7184 13.544C91.5904 14.504 91.4544 15.456 91.3104 16.4C91.1824 17.344 91.0544 18.232 90.9264 19.064C90.7984 19.896 90.6704 20.624 90.5424 21.248C90.3344 22.32 90.0784 23.232 89.7744 23.984C89.4704 24.736 89.0624 25.304 88.5504 25.688C88.0544 26.072 87.3984 26.264 86.5824 26.264C86.3104 26.264 86.0304 26.232 85.7424 26.168C85.4704 26.12 85.2304 26.056 85.0224 25.976V24.176C85.1984 24.256 85.3984 24.328 85.6224 24.392C85.8464 24.44 86.0864 24.464 86.3424 24.464C86.8224 24.464 87.1984 24.272 87.4704 23.888C87.7584 23.488 87.9824 23 88.1424 22.424C88.3024 21.832 88.4384 21.248 88.5504 20.672C88.6464 20.208 88.7584 19.592 88.8864 18.824C89.0144 18.04 89.1504 17.128 89.2944 16.088C89.4544 15.048 89.6144 13.92 89.7744 12.704C89.9504 11.472 90.1184 10.192 90.2784 8.864H99.6624V26ZM110.463 26H108.303V10.76H102.951V8.864H115.791V10.76H110.463V26ZM119.119 8.864H121.135V18.272C121.135 18.672 121.127 19.112 121.111 19.592C121.111 20.056 121.103 20.52 121.087 20.984C121.071 21.448 121.047 21.864 121.015 22.232C120.999 22.584 120.983 22.856 120.967 23.048H121.063L130.495 8.864H132.895V26H130.879V16.688C130.879 16.256 130.887 15.792 130.903 15.296C130.919 14.784 130.935 14.296 130.951 13.832C130.983 13.352 131.007 12.928 131.023 12.56C131.039 12.192 131.055 11.92 131.071 11.744H130.975L121.519 26H119.119V8.864ZM151.34 26H149.18V18.008H140.396V26H138.236V8.864H140.396V16.112H149.18V8.864H151.34V26ZM166.417 8.864V10.784H158.905V26H156.745V8.864H166.417ZM184.535 17.408C184.535 18.736 184.367 19.944 184.031 21.032C183.695 22.104 183.191 23.032 182.519 23.816C181.863 24.6 181.039 25.2 180.047 25.616C179.071 26.032 177.935 26.24 176.639 26.24C175.295 26.24 174.127 26.032 173.135 25.616C172.143 25.184 171.319 24.584 170.663 23.816C170.007 23.032 169.519 22.096 169.199 21.008C168.879 19.92 168.719 18.712 168.719 17.384C168.719 15.624 169.007 14.088 169.583 12.776C170.159 11.464 171.031 10.44 172.199 9.704C173.383 8.968 174.871 8.6 176.663 8.6C178.375 8.6 179.815 8.968 180.983 9.704C182.151 10.424 183.031 11.448 183.623 12.776C184.231 14.088 184.535 15.632 184.535 17.408ZM170.999 17.408C170.999 18.848 171.199 20.088 171.599 21.128C171.999 22.168 172.615 22.968 173.447 23.528C174.295 24.088 175.359 24.368 176.639 24.368C177.935 24.368 178.991 24.088 179.807 23.528C180.639 22.968 181.255 22.168 181.655 21.128C182.055 20.088 182.255 18.848 182.255 17.408C182.255 15.248 181.807 13.56 180.911 12.344C180.015 11.112 178.599 10.496 176.663 10.496C175.367 10.496 174.295 10.776 173.447 11.336C172.615 11.88 171.999 12.672 171.599 13.712C171.199 14.736 170.999 15.968 170.999 17.408ZM193.949 8.864C195.373 8.864 196.565 9 197.525 9.272C198.501 9.544 199.229 9.992 199.709 10.616C200.205 11.24 200.453 12.072 200.453 13.112C200.453 13.784 200.325 14.384 200.069 14.912C199.829 15.424 199.461 15.856 198.965 16.208C198.485 16.544 197.893 16.776 197.189 16.904V17.024C197.909 17.136 198.557 17.344 199.133 17.648C199.725 17.952 200.189 18.384 200.525 18.944C200.861 19.504 201.029 20.232 201.029 21.128C201.029 22.168 200.789 23.056 200.309 23.792C199.829 24.512 199.141 25.064 198.245 25.448C197.365 25.816 196.309 26 195.077 26H189.053V8.864H193.949ZM194.381 16.16C195.853 16.16 196.861 15.928 197.405 15.464C197.949 14.984 198.221 14.28 198.221 13.352C198.221 12.408 197.885 11.736 197.213 11.336C196.557 10.92 195.501 10.712 194.045 10.712H191.213V16.16H194.381ZM191.213 17.96V24.176H194.669C196.189 24.176 197.245 23.88 197.837 23.288C198.429 22.696 198.725 21.92 198.725 20.96C198.725 20.352 198.589 19.824 198.317 19.376C198.061 18.928 197.621 18.584 196.997 18.344C196.389 18.088 195.557 17.96 194.501 17.96H191.213ZM216.134 26L214.07 20.696H207.278L205.238 26H203.054L209.75 8.792H211.694L218.366 26H216.134ZM211.502 13.592C211.454 13.464 211.374 13.232 211.262 12.896C211.15 12.56 211.038 12.216 210.926 11.864C210.83 11.496 210.75 11.216 210.686 11.024C210.606 11.344 210.518 11.672 210.422 12.008C210.342 12.328 210.254 12.624 210.158 12.896C210.078 13.168 210.006 13.4 209.942 13.592L207.998 18.776H213.422L211.502 13.592ZM226.59 18.896L222.15 26H219.63L224.43 18.512C223.822 18.304 223.246 18.016 222.702 17.648C222.174 17.28 221.742 16.776 221.406 16.136C221.07 15.496 220.902 14.672 220.902 13.664C220.902 12.112 221.438 10.928 222.51 10.112C223.582 9.28 225.182 8.864 227.31 8.864H232.11V26H229.95V18.896H226.59ZM227.358 10.712C226.446 10.712 225.678 10.816 225.054 11.024C224.43 11.232 223.95 11.56 223.614 12.008C223.294 12.456 223.134 13.04 223.134 13.76C223.134 14.816 223.486 15.632 224.19 16.208C224.894 16.784 225.982 17.072 227.454 17.072H229.95V10.712H227.358ZM254.105 8.864V10.784H246.593V26H244.433V8.864H254.105ZM262.275 8.864C264.515 8.864 266.147 9.304 267.171 10.184C268.195 11.064 268.707 12.304 268.707 13.904C268.707 14.608 268.587 15.288 268.347 15.944C268.123 16.584 267.747 17.16 267.219 17.672C266.691 18.184 265.987 18.592 265.107 18.896C264.227 19.184 263.147 19.328 261.867 19.328H259.899V26H257.739V8.864H262.275ZM262.083 10.712H259.899V17.48H261.627C262.715 17.48 263.619 17.368 264.339 17.144C265.059 16.904 265.595 16.528 265.947 16.016C266.299 15.504 266.475 14.832 266.475 14C266.475 12.896 266.123 12.072 265.419 11.528C264.715 10.984 263.603 10.712 262.083 10.712ZM280.166 21.128C279.654 22.264 279.134 23.216 278.606 23.984C278.094 24.736 277.486 25.304 276.782 25.688C276.078 26.056 275.182 26.24 274.094 26.24C273.646 26.24 273.222 26.208 272.822 26.144C272.438 26.08 272.086 25.992 271.766 25.88V23.744C272.086 23.888 272.43 24.008 272.798 24.104C273.166 24.184 273.55 24.224 273.95 24.224C274.542 24.224 275.046 24.144 275.462 23.984C275.894 23.808 276.27 23.528 276.59 23.144C276.926 22.76 277.238 22.248 277.526 21.608L270.926 8.864H273.302L278.078 18.296C278.142 18.408 278.206 18.544 278.27 18.704C278.334 18.848 278.398 19 278.462 19.16C278.542 19.32 278.606 19.472 278.654 19.616H278.75C278.798 19.504 278.846 19.376 278.894 19.232C278.958 19.072 279.014 18.92 279.062 18.776C279.126 18.616 279.182 18.48 279.23 18.368L283.358 8.864H285.638L280.166 21.128ZM288.686 26V8.864H301.55V26H299.414V10.76H290.846V26H288.686ZM306.961 26V8.864H319.825V26H317.689V10.76H309.121V26H306.961ZM335.988 26L333.924 20.696H327.132L325.092 26H322.908L329.604 8.792H331.548L338.22 26H335.988ZM331.356 13.592C331.308 13.464 331.228 13.232 331.116 12.896C331.004 12.56 330.892 12.216 330.78 11.864C330.684 11.496 330.604 11.216 330.54 11.024C330.46 11.344 330.372 11.672 330.276 12.008C330.196 12.328 330.108 12.624 330.012 12.896C329.932 13.168 329.86 13.4 329.796 13.592L327.852 18.776H333.276L331.356 13.592Z" fill="#C9BFBA"/>
<path d="M48.552 75.42C47.04 72.508 44.94 70.324 42.252 68.868C39.564 67.356 36.456 66.6 32.928 66.6C29.064 66.6 25.62 67.468 22.596 69.204C19.572 70.94 17.192 73.404 15.456 76.596C13.776 79.788 12.936 83.484 12.936 87.684C12.936 91.884 13.776 95.608 15.456 98.856C17.192 102.048 19.572 104.512 22.596 106.248C25.62 107.984 29.064 108.852 32.928 108.852C38.136 108.852 42.364 107.396 45.612 104.484C48.86 101.572 50.848 97.624 51.576 92.64H29.652V84.996H61.824V92.472C61.208 97.008 59.584 101.18 56.952 104.988C54.376 108.796 50.988 111.848 46.788 114.144C42.644 116.384 38.024 117.504 32.928 117.504C27.44 117.504 22.428 116.244 17.892 113.724C13.356 111.148 9.744 107.592 7.056 103.056C4.424 98.52 3.108 93.396 3.108 87.684C3.108 81.972 4.424 76.848 7.056 72.312C9.744 67.776 13.356 64.248 17.892 61.728C22.484 59.152 27.496 57.864 32.928 57.864C39.144 57.864 44.66 59.404 49.476 62.484C54.348 65.508 57.876 69.82 60.06 75.42H48.552ZM106.465 105.072H82.0208L77.8208 117H67.8248L88.7408 58.536H99.8288L120.745 117H110.665L106.465 105.072ZM103.777 97.26L94.2848 70.128L84.7088 97.26H103.777ZM160.163 117L146.723 93.648H139.415V117H129.839V58.62H149.999C154.479 58.62 158.259 59.404 161.339 60.972C164.475 62.54 166.799 64.64 168.311 67.272C169.879 69.904 170.663 72.844 170.663 76.092C170.663 79.9 169.543 83.372 167.303 86.508C165.119 89.588 161.731 91.688 157.139 92.808L171.587 117H160.163ZM139.415 86.004H149.999C153.583 86.004 156.271 85.108 158.063 83.316C159.911 81.524 160.835 79.116 160.835 76.092C160.835 73.068 159.939 70.716 158.147 69.036C156.355 67.3 153.639 66.432 149.999 66.432H139.415V86.004ZM192.405 58.62V95.832C192.405 100.256 193.553 103.588 195.849 105.828C198.201 108.068 201.449 109.188 205.593 109.188C209.793 109.188 213.041 108.068 215.337 105.828C217.689 103.588 218.865 100.256 218.865 95.832V58.62H228.441V95.664C228.441 100.424 227.405 104.456 225.333 107.76C223.261 111.064 220.489 113.528 217.017 115.152C213.545 116.776 209.709 117.588 205.509 117.588C201.309 117.588 197.473 116.776 194.001 115.152C190.585 113.528 187.869 111.064 185.853 107.76C183.837 104.456 182.829 100.424 182.829 95.664V58.62H192.405ZM259.977 58.62C266.193 58.62 271.625 59.824 276.273 62.232C280.977 64.584 284.589 68 287.109 72.48C289.685 76.904 290.973 82.084 290.973 88.02C290.973 93.956 289.685 99.108 287.109 103.476C284.589 107.844 280.977 111.204 276.273 113.556C271.625 115.852 266.193 117 259.977 117H240.909V58.62H259.977ZM259.977 109.188C266.809 109.188 272.045 107.34 275.685 103.644C279.325 99.948 281.145 94.74 281.145 88.02C281.145 81.244 279.325 75.952 275.685 72.144C272.045 68.336 266.809 66.432 259.977 66.432H250.485V109.188H259.977ZM335.66 105.072H311.216L307.016 117H297.02L317.936 58.536H329.024L349.94 117H339.86L335.66 105.072ZM332.972 97.26L323.48 70.128L313.904 97.26H332.972ZM25.536 201.588C21.616 201.588 18.088 200.916 14.952 199.572C11.816 198.172 9.352 196.212 7.56 193.692C5.768 191.172 4.872 188.232 4.872 184.872H15.12C15.344 187.392 16.324 189.464 18.06 191.088C19.852 192.712 22.344 193.524 25.536 193.524C28.84 193.524 31.416 192.74 33.264 191.172C35.112 189.548 36.036 187.476 36.036 184.956C36.036 182.996 35.448 181.4 34.272 180.168C33.152 178.936 31.724 177.984 29.988 177.312C28.308 176.64 25.956 175.912 22.932 175.128C19.124 174.12 16.016 173.112 13.608 172.104C11.256 171.04 9.24 169.416 7.56 167.232C5.88 165.048 5.04 162.136 5.04 158.496C5.04 155.136 5.88 152.196 7.56 149.676C9.24 147.156 11.592 145.224 14.616 143.88C17.64 142.536 21.14 141.864 25.116 141.864C30.772 141.864 35.392 143.292 38.976 146.148C42.616 148.948 44.632 152.812 45.024 157.74H34.44C34.272 155.612 33.264 153.792 31.416 152.28C29.568 150.768 27.132 150.012 24.108 150.012C21.364 150.012 19.124 150.712 17.388 152.112C15.652 153.512 14.784 155.528 14.784 158.16C14.784 159.952 15.316 161.436 16.38 162.612C17.5 163.732 18.9 164.628 20.58 165.3C22.26 165.972 24.556 166.7 27.468 167.484C31.332 168.548 34.468 169.612 36.876 170.676C39.34 171.74 41.412 173.392 43.092 175.632C44.828 177.816 45.696 180.756 45.696 184.452C45.696 187.42 44.884 190.22 43.26 192.852C41.692 195.484 39.368 197.612 36.288 199.236C33.264 200.804 29.68 201.588 25.536 201.588ZM83.6233 201.588C78.1913 201.588 73.1793 200.328 68.5873 197.808C64.0513 195.232 60.4393 191.676 57.7513 187.14C55.1193 182.548 53.8033 177.396 53.8033 171.684C53.8033 165.972 55.1193 160.848 57.7513 156.312C60.4393 151.776 64.0513 148.248 68.5873 145.728C73.1793 143.152 78.1913 141.864 83.6233 141.864C89.1113 141.864 94.1233 143.152 98.6593 145.728C103.251 148.248 106.863 151.776 109.495 156.312C112.127 160.848 113.443 165.972 113.443 171.684C113.443 177.396 112.127 182.548 109.495 187.14C106.863 191.676 103.251 195.232 98.6593 197.808C94.1233 200.328 89.1113 201.588 83.6233 201.588ZM83.6233 193.272C87.4873 193.272 90.9313 192.404 93.9553 190.668C96.9793 188.876 99.3313 186.356 101.011 183.108C102.747 179.804 103.615 175.996 103.615 171.684C103.615 167.372 102.747 163.592 101.011 160.344C99.3313 157.096 96.9793 154.604 93.9553 152.868C90.9313 151.132 87.4873 150.264 83.6233 150.264C79.7593 150.264 76.3153 151.132 73.2913 152.868C70.2673 154.604 67.8873 157.096 66.1513 160.344C64.4713 163.592 63.6313 167.372 63.6313 171.684C63.6313 175.996 64.4713 179.804 66.1513 183.108C67.8873 186.356 70.2673 188.876 73.2913 190.668C76.3153 192.404 79.7593 193.272 83.6233 193.272ZM132.442 193.272H152.182V201H122.866V142.62H132.442V193.272ZM169.683 142.62V179.832C169.683 184.256 170.831 187.588 173.127 189.828C175.479 192.068 178.727 193.188 182.871 193.188C187.071 193.188 190.319 192.068 192.615 189.828C194.967 187.588 196.143 184.256 196.143 179.832V142.62H205.719V179.664C205.719 184.424 204.683 188.456 202.611 191.76C200.539 195.064 197.767 197.528 194.295 199.152C190.823 200.776 186.987 201.588 182.787 201.588C178.587 201.588 174.751 200.776 171.279 199.152C167.863 197.528 165.147 195.064 163.131 191.76C161.115 188.456 160.107 184.424 160.107 179.664V142.62H169.683ZM255.903 142.62V150.432H240.363V201H230.787V150.432H215.163V142.62H255.903ZM275.177 142.62V201H265.601V142.62H275.177ZM314.377 201.588C308.945 201.588 303.933 200.328 299.341 197.808C294.805 195.232 291.193 191.676 288.505 187.14C285.873 182.548 284.557 177.396 284.557 171.684C284.557 165.972 285.873 160.848 288.505 156.312C291.193 151.776 294.805 148.248 299.341 145.728C303.933 143.152 308.945 141.864 314.377 141.864C319.865 141.864 324.877 143.152 329.413 145.728C334.005 148.248 337.617 151.776 340.249 156.312C342.881 160.848 344.197 165.972 344.197 171.684C344.197 177.396 342.881 182.548 340.249 187.14C337.617 191.676 334.005 195.232 329.413 197.808C324.877 200.328 319.865 201.588 314.377 201.588ZM314.377 193.272C318.241 193.272 321.685 192.404 324.709 190.668C327.733 188.876 330.085 186.356 331.765 183.108C333.501 179.804 334.369 175.996 334.369 171.684C334.369 167.372 333.501 163.592 331.765 160.344C330.085 157.096 327.733 154.604 324.709 152.868C321.685 151.132 318.241 150.264 314.377 150.264C310.513 150.264 307.069 151.132 304.045 152.868C301.021 154.604 298.641 157.096 296.905 160.344C295.225 163.592 294.385 167.372 294.385 171.684C294.385 175.996 295.225 179.804 296.905 183.108C298.641 186.356 301.021 188.876 304.045 190.668C307.069 192.404 310.513 193.272 314.377 193.272ZM401.584 201H392.008L363.196 157.404V201H353.62V142.536H363.196L392.008 186.048V142.536H401.584V201Z" fill="#C9BFBA"/>
</svg>
