<svg width="530" height="137" viewBox="0 0 530 137" fill="none" xmlns="http://www.w3.org/2000/svg">
<rect y="17" width="494" height="88" fill="#607F96"/>
<path d="M502.131 45.9016L526.266 87.7049H477.996L502.131 45.9016Z" fill="#9ABDDF"/>
<path d="M466.885 0L484.632 30.7377H449.139L466.885 0Z" fill="#9ABDDF"/>
<path d="M457.869 80.3279L482.004 122.131H433.734L457.869 80.3279Z" fill="#9ABDDF"/>
<path d="M468.524 91.8032L436.581 35.2459L500.468 35.2459L468.524 91.8032Z" fill="#9ABDDF"/>
<path d="M60.08 67.76H60.2C60.312 67.76 60.416 67.712 60.512 67.616C60.608 67.52 60.688 67.408 60.752 67.28C60.832 67.152 60.888 67.016 60.92 66.872C60.952 66.712 60.968 66.568 60.968 66.44V53.672C60.968 53.56 60.952 53.432 60.92 53.288C60.888 53.144 60.832 53.008 60.752 52.88C60.688 52.736 60.6 52.624 60.488 52.544C60.392 52.448 60.28 52.4 60.152 52.4H60.032V52.16H63.968C65.456 52.16 66.616 52.488 67.448 53.144C68.296 53.8 68.72 54.672 68.72 55.76C68.72 56.224 68.64 56.64 68.48 57.008C68.32 57.376 68.112 57.704 67.856 57.992C67.616 58.28 67.352 58.528 67.064 58.736C66.776 58.928 66.504 59.088 66.248 59.216C66.92 59.344 67.48 59.56 67.928 59.864C68.376 60.168 68.736 60.52 69.008 60.92C69.296 61.304 69.496 61.72 69.608 62.168C69.72 62.616 69.776 63.056 69.776 63.488C69.776 64.32 69.624 65.024 69.32 65.6C69.016 66.16 68.608 66.624 68.096 66.992C67.6 67.344 67.024 67.6 66.368 67.76C65.728 67.92 65.064 68 64.376 68H60.08V67.76ZM68.144 63.632C68.016 62.4 67.6 61.448 66.896 60.776C66.192 60.104 65.2 59.768 63.92 59.768H62.576V67.208H63.968C65.264 67.208 66.28 66.92 67.016 66.344C67.768 65.752 68.144 64.936 68.144 63.896V63.632ZM67.16 55.976C67.112 55.048 66.784 54.312 66.176 53.768C65.584 53.224 64.784 52.952 63.776 52.952H62.576V59H63.824C64.496 59 65.04 58.912 65.456 58.736C65.888 58.56 66.232 58.336 66.488 58.064C66.744 57.776 66.92 57.464 67.016 57.128C67.112 56.792 67.16 56.464 67.16 56.144V55.976ZM78.8782 68V66.776L78.7582 66.896C78.3582 67.296 77.8942 67.608 77.3662 67.832C76.8542 68.056 76.2302 68.168 75.4942 68.168C74.9342 68.168 74.4542 68.104 74.0542 67.976C73.6542 67.848 73.3262 67.672 73.0702 67.448C72.8142 67.208 72.6222 66.936 72.4942 66.632C72.3822 66.328 72.3262 66.008 72.3262 65.672C72.3262 65.128 72.4702 64.648 72.7582 64.232C73.0622 63.816 73.4942 63.448 74.0542 63.128C74.6142 62.808 75.2942 62.52 76.0942 62.264C76.9102 61.992 77.8382 61.728 78.8782 61.472C78.8462 60.848 78.7182 60.344 78.4942 59.96C78.2702 59.576 78.0062 59.28 77.7022 59.072C77.3982 58.848 77.0782 58.704 76.7422 58.64C76.4062 58.56 76.1182 58.52 75.8782 58.52C75.4622 58.52 75.0942 58.584 74.7742 58.712C74.4542 58.824 74.1742 58.984 73.9342 59.192C73.6942 59.384 73.4942 59.608 73.3342 59.864C73.1902 60.12 73.0782 60.376 72.9982 60.632H72.7822V58.76C72.9262 58.76 73.0942 58.712 73.2862 58.616C73.4782 58.504 73.7022 58.384 73.9582 58.256C74.2302 58.128 74.5502 58.016 74.9182 57.92C75.3022 57.808 75.7582 57.752 76.2862 57.752C77.1662 57.752 77.8782 57.864 78.4222 58.088C78.9662 58.312 79.3822 58.608 79.6702 58.976C79.9742 59.344 80.1742 59.768 80.2702 60.248C80.3662 60.712 80.4142 61.192 80.4142 61.688V66.44C80.4142 66.76 80.4942 67.064 80.6542 67.352C80.8142 67.624 81.0302 67.76 81.3022 67.76V68H78.8782ZM78.8782 65.72V62.288L78.6382 62.336C78.2542 62.432 77.7822 62.56 77.2222 62.72C76.6782 62.88 76.1582 63.088 75.6622 63.344C75.1662 63.6 74.7422 63.904 74.3902 64.256C74.0382 64.608 73.8622 65.016 73.8622 65.48C73.8622 65.992 74.0702 66.416 74.4862 66.752C74.9022 67.088 75.4462 67.256 76.1182 67.256C76.6462 67.256 77.1102 67.144 77.5102 66.92C77.9102 66.68 78.2782 66.376 78.6142 66.008L78.8782 65.72ZM86.4869 67.208H90.8309V59.48C90.8309 59.368 90.8149 59.232 90.7829 59.072C90.7509 58.912 90.7029 58.768 90.6389 58.64C90.5909 58.512 90.5189 58.4 90.4229 58.304C90.3269 58.208 90.2229 58.16 90.1109 58.16V57.92H93.0869V58.16C92.9589 58.16 92.8469 58.208 92.7509 58.304C92.6709 58.384 92.5989 58.488 92.5349 58.616C92.4869 58.744 92.4469 58.88 92.4149 59.024C92.3829 59.152 92.3669 59.264 92.3669 59.36V67.208H96.7349V59.48C96.7349 59.368 96.7189 59.232 96.6869 59.072C96.6709 58.912 96.6309 58.768 96.5669 58.64C96.5189 58.512 96.4469 58.4 96.3509 58.304C96.2549 58.208 96.1349 58.16 95.9909 58.16V57.92H99.0149V58.16C98.8869 58.16 98.7749 58.208 98.6789 58.304C98.5989 58.4 98.5269 58.512 98.4629 58.64C98.3989 58.768 98.3509 58.912 98.3189 59.072C98.3029 59.232 98.2949 59.368 98.2949 59.48V66.512C98.2949 66.624 98.3109 66.752 98.3429 66.896C98.3749 67.04 98.4149 67.176 98.4629 67.304C98.5269 67.432 98.5989 67.544 98.6789 67.64C98.7749 67.72 98.8789 67.76 98.9909 67.76V68H84.2309V67.76C84.3429 67.76 84.4389 67.72 84.5189 67.64C84.5989 67.544 84.6709 67.432 84.7349 67.304C84.7989 67.176 84.8469 67.04 84.8789 66.896C84.9109 66.752 84.9269 66.624 84.9269 66.512V59.48C84.9269 59.368 84.9109 59.232 84.8789 59.072C84.8629 58.912 84.8229 58.768 84.7589 58.64C84.7109 58.512 84.6389 58.4 84.5429 58.304C84.4629 58.208 84.3589 58.16 84.2309 58.16V57.92H87.2069V58.16C87.0789 58.16 86.9669 58.208 86.8709 58.304C86.7749 58.4 86.6949 58.512 86.6309 58.64C86.5829 58.768 86.5429 58.912 86.5109 59.072C86.4949 59.232 86.4869 59.368 86.4869 59.48V67.208ZM111.544 66.44C111.544 66.568 111.56 66.712 111.592 66.872C111.64 67.016 111.696 67.152 111.76 67.28C111.824 67.408 111.904 67.52 112 67.616C112.112 67.712 112.216 67.76 112.312 67.76V68H109.24V67.76C109.352 67.76 109.456 67.72 109.552 67.64C109.648 67.544 109.728 67.432 109.792 67.304C109.856 67.16 109.904 67.016 109.936 66.872C109.968 66.712 109.984 66.568 109.984 66.44V60.68L104.272 66.272V66.44C104.272 66.568 104.288 66.712 104.32 66.872C104.352 67.016 104.4 67.152 104.464 67.28C104.528 67.408 104.6 67.52 104.68 67.616C104.776 67.712 104.88 67.76 104.992 67.76V68H101.944V67.76C102.056 67.76 102.16 67.72 102.256 67.64C102.352 67.544 102.432 67.432 102.496 67.304C102.56 67.16 102.608 67.016 102.64 66.872C102.672 66.712 102.688 66.568 102.688 66.44V59.408C102.688 59.296 102.672 59.168 102.64 59.024C102.608 58.88 102.56 58.744 102.496 58.616C102.432 58.488 102.352 58.384 102.256 58.304C102.16 58.208 102.056 58.16 101.944 58.16V57.92H104.992V58.16C104.864 58.16 104.752 58.208 104.656 58.304C104.576 58.384 104.504 58.488 104.44 58.616C104.392 58.744 104.352 58.88 104.32 59.024C104.288 59.168 104.272 59.296 104.272 59.408V65.144L109.984 59.552V59.408C109.984 59.296 109.968 59.168 109.936 59.024C109.904 58.88 109.856 58.744 109.792 58.616C109.728 58.488 109.648 58.384 109.552 58.304C109.456 58.208 109.352 58.16 109.24 58.16V57.92H112.312V58.16C112.184 58.16 112.064 58.208 111.952 58.304C111.856 58.384 111.776 58.488 111.712 58.616C111.664 58.744 111.624 58.88 111.592 59.024C111.56 59.168 111.544 59.296 111.544 59.408V66.44ZM133.193 67.208V70.112H132.953C132.953 69.904 132.897 69.68 132.785 69.44C132.689 69.2 132.553 68.968 132.377 68.744C132.201 68.536 131.993 68.36 131.753 68.216C131.529 68.072 131.289 68 131.033 68H122.321V67.76C122.433 67.76 122.529 67.72 122.609 67.64C122.705 67.544 122.785 67.432 122.849 67.304C122.913 67.16 122.961 67.016 122.993 66.872C123.025 66.728 123.041 66.608 123.041 66.512V59.48C123.041 59.368 123.025 59.232 122.993 59.072C122.977 58.912 122.945 58.768 122.897 58.64C122.849 58.512 122.777 58.4 122.681 58.304C122.585 58.208 122.465 58.16 122.321 58.16V57.92H125.369V58.16C125.225 58.16 125.105 58.208 125.009 58.304C124.929 58.384 124.857 58.496 124.793 58.64C124.729 58.768 124.681 58.912 124.649 59.072C124.633 59.216 124.625 59.352 124.625 59.48V67.208H129.857V59.48C129.857 59.368 129.841 59.232 129.809 59.072C129.793 58.912 129.753 58.768 129.689 58.64C129.625 58.512 129.545 58.4 129.449 58.304C129.369 58.208 129.257 58.16 129.113 58.16V57.92H132.161V58.16C132.017 58.16 131.897 58.208 131.801 58.304C131.721 58.384 131.649 58.496 131.585 58.64C131.537 58.768 131.497 58.912 131.465 59.072C131.449 59.216 131.441 59.352 131.441 59.48V65.888C131.441 66.208 131.505 66.512 131.633 66.8C131.777 67.072 132.041 67.208 132.425 67.208H133.193ZM136.642 63.152C136.706 63.712 136.842 64.248 137.05 64.76C137.258 65.256 137.53 65.696 137.866 66.08C138.218 66.464 138.642 66.776 139.138 67.016C139.634 67.24 140.21 67.352 140.866 67.352C141.218 67.352 141.586 67.304 141.97 67.208C142.37 67.096 142.738 66.944 143.074 66.752C143.41 66.56 143.706 66.328 143.962 66.056C144.234 65.768 144.418 65.448 144.514 65.096H144.73V66.896C144.634 66.896 144.522 66.928 144.394 66.992C144.282 67.056 144.146 67.136 143.986 67.232C143.666 67.424 143.234 67.632 142.69 67.856C142.146 68.064 141.426 68.168 140.53 68.168C139.81 68.168 139.122 68.064 138.466 67.856C137.826 67.648 137.258 67.328 136.762 66.896C136.266 66.464 135.866 65.912 135.562 65.24C135.274 64.568 135.13 63.768 135.13 62.84C135.13 62.248 135.226 61.648 135.418 61.04C135.626 60.432 135.93 59.888 136.33 59.408C136.746 58.912 137.274 58.512 137.914 58.208C138.554 57.904 139.322 57.752 140.218 57.752C141.018 57.752 141.714 57.888 142.306 58.16C142.914 58.432 143.41 58.808 143.794 59.288C144.194 59.768 144.49 60.336 144.682 60.992C144.874 61.648 144.97 62.368 144.97 63.152H136.642ZM140.122 58.544C139.562 58.544 139.074 58.656 138.658 58.88C138.258 59.104 137.914 59.392 137.626 59.744C137.338 60.096 137.114 60.496 136.954 60.944C136.794 61.392 136.69 61.84 136.642 62.288H143.482C143.466 61.824 143.378 61.368 143.218 60.92C143.074 60.472 142.866 60.072 142.594 59.72C142.322 59.368 141.978 59.088 141.562 58.88C141.146 58.656 140.666 58.544 140.122 58.544ZM153.906 67.76C154.018 67.76 154.146 67.712 154.29 67.616C154.434 67.52 154.506 67.384 154.506 67.208C154.506 67.176 154.49 67.112 154.458 67.016C154.442 66.904 154.402 66.784 154.338 66.656L151.29 59.456L148.122 67.016C147.85 67.672 147.314 68 146.514 68H145.986V67.76C146.21 67.76 146.45 67.648 146.706 67.424C146.978 67.184 147.194 66.904 147.354 66.584L150.618 58.952C150.698 58.744 150.738 58.576 150.738 58.448C150.738 58.256 150.61 58.16 150.354 58.16V57.92H152.298L155.994 66.56C156.106 66.8 156.266 67.064 156.474 67.352C156.698 67.624 156.906 67.76 157.098 67.76V68H153.906V67.76ZM168.886 66.44C168.886 66.568 168.902 66.712 168.934 66.872C168.982 67.016 169.038 67.152 169.102 67.28C169.166 67.408 169.246 67.52 169.342 67.616C169.454 67.712 169.558 67.76 169.654 67.76V68H166.582V67.76C166.694 67.76 166.798 67.72 166.894 67.64C166.99 67.544 167.07 67.432 167.134 67.304C167.198 67.16 167.246 67.016 167.278 66.872C167.31 66.712 167.326 66.568 167.326 66.44V60.68L161.614 66.272V66.44C161.614 66.568 161.63 66.712 161.662 66.872C161.694 67.016 161.742 67.152 161.806 67.28C161.87 67.408 161.942 67.52 162.022 67.616C162.118 67.712 162.222 67.76 162.334 67.76V68H159.286V67.76C159.398 67.76 159.502 67.72 159.598 67.64C159.694 67.544 159.774 67.432 159.838 67.304C159.902 67.16 159.95 67.016 159.982 66.872C160.014 66.712 160.03 66.568 160.03 66.44V59.408C160.03 59.296 160.014 59.168 159.982 59.024C159.95 58.88 159.902 58.744 159.838 58.616C159.774 58.488 159.694 58.384 159.598 58.304C159.502 58.208 159.398 58.16 159.286 58.16V57.92H162.334V58.16C162.206 58.16 162.094 58.208 161.998 58.304C161.918 58.384 161.846 58.488 161.782 58.616C161.734 58.744 161.694 58.88 161.662 59.024C161.63 59.168 161.614 59.296 161.614 59.408V65.144L167.326 59.552V59.408C167.326 59.296 167.31 59.168 167.278 59.024C167.246 58.88 167.198 58.744 167.134 58.616C167.07 58.488 166.99 58.384 166.894 58.304C166.798 58.208 166.694 58.16 166.582 58.16V57.92H169.654V58.16C169.526 58.16 169.406 58.208 169.294 58.304C169.198 58.384 169.118 58.488 169.054 58.616C169.006 58.744 168.966 58.88 168.934 59.024C168.902 59.168 168.886 59.296 168.886 59.408V66.44ZM179.255 63.056V61.856H184.703V63.056H179.255ZM196.814 66.44C196.814 66.568 196.83 66.712 196.862 66.872C196.894 67.016 196.942 67.152 197.006 67.28C197.07 67.408 197.142 67.52 197.222 67.616C197.318 67.712 197.422 67.76 197.534 67.76V68H194.51V67.76C194.622 67.76 194.718 67.72 194.798 67.64C194.894 67.544 194.974 67.432 195.038 67.304C195.102 67.16 195.15 67.016 195.182 66.872C195.214 66.712 195.23 66.568 195.23 66.44V59.408C195.23 59.296 195.214 59.168 195.182 59.024C195.15 58.88 195.102 58.744 195.038 58.616C194.974 58.488 194.894 58.384 194.798 58.304C194.718 58.208 194.622 58.16 194.51 58.16V57.92H197.534V58.16C197.406 58.16 197.294 58.208 197.198 58.304C197.118 58.384 197.046 58.488 196.982 58.616C196.934 58.744 196.894 58.88 196.862 59.024C196.83 59.168 196.814 59.296 196.814 59.408V62.312H202.286V59.408C202.286 59.296 202.27 59.168 202.238 59.024C202.206 58.88 202.158 58.744 202.094 58.616C202.046 58.488 201.974 58.384 201.878 58.304C201.798 58.208 201.694 58.16 201.566 58.16V57.92H204.59V58.16C204.462 58.16 204.35 58.208 204.254 58.304C204.174 58.384 204.102 58.488 204.038 58.616C203.974 58.744 203.926 58.88 203.894 59.024C203.878 59.168 203.87 59.296 203.87 59.408V66.44C203.87 66.568 203.886 66.712 203.918 66.872C203.95 67.016 203.998 67.152 204.062 67.28C204.126 67.408 204.198 67.52 204.278 67.616C204.374 67.712 204.478 67.76 204.59 67.76V68H201.566V67.76C201.678 67.76 201.774 67.72 201.854 67.64C201.95 67.544 202.03 67.432 202.094 67.304C202.158 67.16 202.206 67.016 202.238 66.872C202.27 66.712 202.286 66.568 202.286 66.44V63.104H196.814V66.44ZM213.964 68V66.776L213.844 66.896C213.444 67.296 212.98 67.608 212.452 67.832C211.94 68.056 211.316 68.168 210.58 68.168C210.02 68.168 209.54 68.104 209.14 67.976C208.74 67.848 208.412 67.672 208.156 67.448C207.9 67.208 207.708 66.936 207.58 66.632C207.468 66.328 207.412 66.008 207.412 65.672C207.412 65.128 207.556 64.648 207.844 64.232C208.148 63.816 208.58 63.448 209.14 63.128C209.7 62.808 210.38 62.52 211.18 62.264C211.996 61.992 212.924 61.728 213.964 61.472C213.932 60.848 213.804 60.344 213.58 59.96C213.356 59.576 213.092 59.28 212.788 59.072C212.484 58.848 212.164 58.704 211.828 58.64C211.492 58.56 211.204 58.52 210.964 58.52C210.548 58.52 210.18 58.584 209.86 58.712C209.54 58.824 209.26 58.984 209.02 59.192C208.78 59.384 208.58 59.608 208.42 59.864C208.276 60.12 208.164 60.376 208.084 60.632H207.868V58.76C208.012 58.76 208.18 58.712 208.372 58.616C208.564 58.504 208.788 58.384 209.044 58.256C209.316 58.128 209.636 58.016 210.004 57.92C210.388 57.808 210.844 57.752 211.372 57.752C212.252 57.752 212.964 57.864 213.508 58.088C214.052 58.312 214.468 58.608 214.756 58.976C215.06 59.344 215.26 59.768 215.356 60.248C215.452 60.712 215.5 61.192 215.5 61.688V66.44C215.5 66.76 215.58 67.064 215.74 67.352C215.9 67.624 216.116 67.76 216.388 67.76V68H213.964ZM213.964 65.72V62.288L213.724 62.336C213.34 62.432 212.868 62.56 212.308 62.72C211.764 62.88 211.244 63.088 210.748 63.344C210.252 63.6 209.828 63.904 209.476 64.256C209.124 64.608 208.948 65.016 208.948 65.48C208.948 65.992 209.156 66.416 209.572 66.752C209.988 67.088 210.532 67.256 211.204 67.256C211.732 67.256 212.196 67.144 212.596 66.92C212.996 66.68 213.364 66.376 213.7 66.008L213.964 65.72ZM221.572 67.208H225.916V59.48C225.916 59.368 225.9 59.232 225.868 59.072C225.836 58.912 225.788 58.768 225.724 58.64C225.676 58.512 225.604 58.4 225.508 58.304C225.412 58.208 225.308 58.16 225.196 58.16V57.92H228.172V58.16C228.044 58.16 227.932 58.208 227.836 58.304C227.756 58.384 227.684 58.488 227.62 58.616C227.572 58.744 227.532 58.88 227.5 59.024C227.468 59.152 227.452 59.264 227.452 59.36V67.208H231.82V59.48C231.82 59.368 231.804 59.232 231.772 59.072C231.756 58.912 231.716 58.768 231.652 58.64C231.604 58.512 231.532 58.4 231.436 58.304C231.34 58.208 231.22 58.16 231.076 58.16V57.92H234.1V58.16C233.972 58.16 233.86 58.208 233.764 58.304C233.684 58.4 233.612 58.512 233.548 58.64C233.484 58.768 233.436 58.912 233.404 59.072C233.388 59.232 233.38 59.368 233.38 59.48V66.512C233.38 66.624 233.396 66.752 233.428 66.896C233.46 67.04 233.5 67.176 233.548 67.304C233.612 67.432 233.684 67.544 233.764 67.64C233.86 67.72 233.964 67.76 234.076 67.76V68H219.316V67.76C219.428 67.76 219.524 67.72 219.604 67.64C219.684 67.544 219.756 67.432 219.82 67.304C219.884 67.176 219.932 67.04 219.964 66.896C219.996 66.752 220.012 66.624 220.012 66.512V59.48C220.012 59.368 219.996 59.232 219.964 59.072C219.948 58.912 219.908 58.768 219.844 58.64C219.796 58.512 219.724 58.4 219.628 58.304C219.548 58.208 219.444 58.16 219.316 58.16V57.92H222.292V58.16C222.164 58.16 222.052 58.208 221.956 58.304C221.86 58.4 221.78 58.512 221.716 58.64C221.668 58.768 221.628 58.912 221.596 59.072C221.58 59.232 221.572 59.368 221.572 59.48V67.208ZM246.629 66.44C246.629 66.568 246.645 66.712 246.677 66.872C246.725 67.016 246.781 67.152 246.845 67.28C246.909 67.408 246.989 67.52 247.085 67.616C247.197 67.712 247.301 67.76 247.397 67.76V68H244.325V67.76C244.437 67.76 244.541 67.72 244.637 67.64C244.733 67.544 244.813 67.432 244.877 67.304C244.941 67.16 244.989 67.016 245.021 66.872C245.053 66.712 245.069 66.568 245.069 66.44V60.68L239.357 66.272V66.44C239.357 66.568 239.373 66.712 239.405 66.872C239.437 67.016 239.485 67.152 239.549 67.28C239.613 67.408 239.685 67.52 239.765 67.616C239.861 67.712 239.965 67.76 240.077 67.76V68H237.029V67.76C237.141 67.76 237.245 67.72 237.341 67.64C237.437 67.544 237.517 67.432 237.581 67.304C237.645 67.16 237.693 67.016 237.725 66.872C237.757 66.712 237.773 66.568 237.773 66.44V59.408C237.773 59.296 237.757 59.168 237.725 59.024C237.693 58.88 237.645 58.744 237.581 58.616C237.517 58.488 237.437 58.384 237.341 58.304C237.245 58.208 237.141 58.16 237.029 58.16V57.92H240.077V58.16C239.949 58.16 239.837 58.208 239.741 58.304C239.661 58.384 239.589 58.488 239.525 58.616C239.477 58.744 239.437 58.88 239.405 59.024C239.373 59.168 239.357 59.296 239.357 59.408V65.144L245.069 59.552V59.408C245.069 59.296 245.053 59.168 245.021 59.024C244.989 58.88 244.941 58.744 244.877 58.616C244.813 58.488 244.733 58.384 244.637 58.304C244.541 58.208 244.437 58.16 244.325 58.16V57.92H247.397V58.16C247.269 58.16 247.149 58.208 247.037 58.304C246.941 58.384 246.861 58.488 246.797 58.616C246.749 58.744 246.709 58.88 246.677 59.024C246.645 59.168 246.629 59.296 246.629 59.408V66.44ZM262.495 57.752C263.359 57.752 264.103 57.904 264.727 58.208C265.367 58.496 265.895 58.88 266.311 59.36C266.743 59.84 267.063 60.392 267.271 61.016C267.479 61.64 267.583 62.28 267.583 62.936C267.583 63.576 267.479 64.208 267.271 64.832C267.079 65.456 266.775 66.016 266.359 66.512C265.959 67.008 265.455 67.408 264.847 67.712C264.239 68.016 263.519 68.168 262.687 68.168C262.191 68.168 261.679 68.04 261.151 67.784C260.639 67.512 260.175 67.176 259.759 66.776V71.72C259.759 71.848 259.775 71.984 259.807 72.128C259.839 72.288 259.887 72.432 259.951 72.56C260.031 72.688 260.111 72.8 260.191 72.896C260.287 72.992 260.399 73.04 260.527 73.04V73.28H257.407V73.04C257.519 73.04 257.623 72.992 257.719 72.896C257.815 72.8 257.895 72.688 257.959 72.56C258.039 72.432 258.095 72.288 258.127 72.128C258.159 71.984 258.175 71.848 258.175 71.72V59.336C258.175 59.192 258.167 59.056 258.151 58.928C258.151 58.784 258.127 58.664 258.079 58.568C258.031 58.456 257.951 58.368 257.839 58.304C257.743 58.224 257.599 58.176 257.407 58.16V57.92H259.759V58.976C260.079 58.592 260.463 58.296 260.911 58.088C261.375 57.864 261.903 57.752 262.495 57.752ZM262.711 67.352C263.271 67.336 263.759 67.208 264.175 66.968C264.591 66.728 264.935 66.416 265.207 66.032C265.479 65.648 265.679 65.224 265.807 64.76C265.935 64.28 265.999 63.784 265.999 63.272C265.999 62.696 265.919 62.128 265.759 61.568C265.599 61.008 265.367 60.512 265.063 60.08C264.759 59.632 264.383 59.272 263.935 59C263.503 58.712 263.007 58.568 262.447 58.568C262.111 58.568 261.775 58.632 261.439 58.76C261.119 58.888 260.831 59.072 260.575 59.312C260.335 59.552 260.135 59.84 259.975 60.176C259.831 60.496 259.759 60.856 259.759 61.256V64.4C259.759 64.832 259.847 65.232 260.023 65.6C260.199 65.952 260.423 66.264 260.695 66.536C260.983 66.792 261.303 66.992 261.655 67.136C262.007 67.28 262.359 67.352 262.711 67.352ZM271.774 63.152C271.838 63.712 271.974 64.248 272.182 64.76C272.39 65.256 272.662 65.696 272.998 66.08C273.35 66.464 273.774 66.776 274.27 67.016C274.766 67.24 275.342 67.352 275.998 67.352C276.35 67.352 276.718 67.304 277.102 67.208C277.502 67.096 277.87 66.944 278.206 66.752C278.542 66.56 278.838 66.328 279.094 66.056C279.366 65.768 279.55 65.448 279.646 65.096H279.862V66.896C279.766 66.896 279.654 66.928 279.526 66.992C279.414 67.056 279.278 67.136 279.118 67.232C278.798 67.424 278.366 67.632 277.822 67.856C277.278 68.064 276.558 68.168 275.662 68.168C274.942 68.168 274.254 68.064 273.598 67.856C272.958 67.648 272.39 67.328 271.894 66.896C271.398 66.464 270.998 65.912 270.694 65.24C270.406 64.568 270.262 63.768 270.262 62.84C270.262 62.248 270.358 61.648 270.55 61.04C270.758 60.432 271.062 59.888 271.462 59.408C271.878 58.912 272.406 58.512 273.046 58.208C273.686 57.904 274.454 57.752 275.35 57.752C276.15 57.752 276.846 57.888 277.438 58.16C278.046 58.432 278.542 58.808 278.926 59.288C279.326 59.768 279.622 60.336 279.814 60.992C280.006 61.648 280.102 62.368 280.102 63.152H271.774ZM275.254 58.544C274.694 58.544 274.206 58.656 273.79 58.88C273.39 59.104 273.046 59.392 272.758 59.744C272.47 60.096 272.246 60.496 272.086 60.944C271.926 61.392 271.822 61.84 271.774 62.288H278.614C278.598 61.824 278.51 61.368 278.35 60.92C278.206 60.472 277.998 60.072 277.726 59.72C277.454 59.368 277.11 59.088 276.694 58.88C276.278 58.656 275.798 58.544 275.254 58.544ZM285.079 67.208H289.423V59.48C289.423 59.368 289.407 59.232 289.375 59.072C289.343 58.912 289.295 58.768 289.231 58.64C289.183 58.512 289.111 58.4 289.015 58.304C288.919 58.208 288.815 58.16 288.703 58.16V57.92H291.679V58.16C291.551 58.16 291.439 58.208 291.343 58.304C291.263 58.384 291.191 58.488 291.127 58.616C291.079 58.744 291.039 58.88 291.007 59.024C290.975 59.152 290.959 59.264 290.959 59.36V67.208H295.327V59.48C295.327 59.368 295.311 59.232 295.279 59.072C295.263 58.912 295.223 58.768 295.159 58.64C295.111 58.512 295.039 58.4 294.943 58.304C294.847 58.208 294.727 58.16 294.583 58.16V57.92H297.607V58.16C297.479 58.16 297.367 58.208 297.271 58.304C297.191 58.4 297.119 58.512 297.055 58.64C296.991 58.768 296.943 58.912 296.911 59.072C296.895 59.232 296.887 59.368 296.887 59.48V66.512C296.887 66.624 296.903 66.752 296.935 66.896C296.967 67.04 297.007 67.176 297.055 67.304C297.119 67.432 297.191 67.544 297.271 67.64C297.367 67.72 297.471 67.76 297.583 67.76V68H282.823V67.76C282.935 67.76 283.031 67.72 283.111 67.64C283.191 67.544 283.263 67.432 283.327 67.304C283.391 67.176 283.439 67.04 283.471 66.896C283.503 66.752 283.519 66.624 283.519 66.512V59.48C283.519 59.368 283.503 59.232 283.471 59.072C283.455 58.912 283.415 58.768 283.351 58.64C283.303 58.512 283.231 58.4 283.135 58.304C283.055 58.208 282.951 58.16 282.823 58.16V57.92H285.799V58.16C285.671 58.16 285.559 58.208 285.463 58.304C285.367 58.4 285.287 58.512 285.223 58.64C285.175 58.768 285.135 58.912 285.103 59.072C285.087 59.232 285.079 59.368 285.079 59.48V67.208ZM301.831 63.152C301.895 63.712 302.031 64.248 302.239 64.76C302.447 65.256 302.719 65.696 303.055 66.08C303.407 66.464 303.831 66.776 304.327 67.016C304.823 67.24 305.399 67.352 306.055 67.352C306.407 67.352 306.775 67.304 307.159 67.208C307.559 67.096 307.927 66.944 308.263 66.752C308.599 66.56 308.895 66.328 309.151 66.056C309.423 65.768 309.607 65.448 309.703 65.096H309.919V66.896C309.823 66.896 309.711 66.928 309.583 66.992C309.471 67.056 309.335 67.136 309.175 67.232C308.855 67.424 308.423 67.632 307.879 67.856C307.335 68.064 306.615 68.168 305.719 68.168C304.999 68.168 304.311 68.064 303.655 67.856C303.015 67.648 302.447 67.328 301.951 66.896C301.455 66.464 301.055 65.912 300.751 65.24C300.463 64.568 300.319 63.768 300.319 62.84C300.319 62.248 300.415 61.648 300.607 61.04C300.815 60.432 301.119 59.888 301.519 59.408C301.935 58.912 302.463 58.512 303.103 58.208C303.743 57.904 304.511 57.752 305.407 57.752C306.207 57.752 306.903 57.888 307.495 58.16C308.103 58.432 308.599 58.808 308.983 59.288C309.383 59.768 309.679 60.336 309.871 60.992C310.063 61.648 310.159 62.368 310.159 63.152H301.831ZM305.311 58.544C304.751 58.544 304.263 58.656 303.847 58.88C303.447 59.104 303.103 59.392 302.815 59.744C302.527 60.096 302.303 60.496 302.143 60.944C301.983 61.392 301.879 61.84 301.831 62.288H308.671C308.655 61.824 308.567 61.368 308.407 60.92C308.263 60.472 308.055 60.072 307.783 59.72C307.511 59.368 307.167 59.088 306.751 58.88C306.335 58.656 305.855 58.544 305.311 58.544ZM315.232 66.44C315.232 66.568 315.248 66.712 315.28 66.872C315.312 67.016 315.36 67.152 315.424 67.28C315.488 67.408 315.56 67.52 315.64 67.616C315.736 67.712 315.84 67.76 315.952 67.76V68H312.928V67.76C313.04 67.76 313.136 67.72 313.216 67.64C313.312 67.544 313.392 67.432 313.456 67.304C313.52 67.16 313.568 67.016 313.6 66.872C313.632 66.712 313.648 66.568 313.648 66.44V59.408C313.648 59.296 313.632 59.168 313.6 59.024C313.568 58.88 313.52 58.744 313.456 58.616C313.392 58.488 313.312 58.384 313.216 58.304C313.136 58.208 313.04 58.16 312.928 58.16V57.92H315.952V58.16C315.824 58.16 315.712 58.208 315.616 58.304C315.536 58.384 315.464 58.488 315.4 58.616C315.352 58.744 315.312 58.88 315.28 59.024C315.248 59.168 315.232 59.296 315.232 59.408V62.312H320.704V59.408C320.704 59.296 320.688 59.168 320.656 59.024C320.624 58.88 320.576 58.744 320.512 58.616C320.464 58.488 320.392 58.384 320.296 58.304C320.216 58.208 320.112 58.16 319.984 58.16V57.92H323.008V58.16C322.88 58.16 322.768 58.208 322.672 58.304C322.592 58.384 322.52 58.488 322.456 58.616C322.392 58.744 322.344 58.88 322.312 59.024C322.296 59.168 322.288 59.296 322.288 59.408V66.44C322.288 66.568 322.304 66.712 322.336 66.872C322.368 67.016 322.416 67.152 322.48 67.28C322.544 67.408 322.616 67.52 322.696 67.616C322.792 67.712 322.896 67.76 323.008 67.76V68H319.984V67.76C320.096 67.76 320.192 67.72 320.272 67.64C320.368 67.544 320.448 67.432 320.512 67.304C320.576 67.16 320.624 67.016 320.656 66.872C320.688 66.712 320.704 66.568 320.704 66.44V63.104H315.232V66.44ZM335.669 66.44C335.669 66.568 335.685 66.712 335.717 66.872C335.765 67.016 335.821 67.152 335.885 67.28C335.949 67.408 336.029 67.52 336.125 67.616C336.237 67.712 336.341 67.76 336.437 67.76V68H333.365V67.76C333.477 67.76 333.581 67.72 333.677 67.64C333.773 67.544 333.853 67.432 333.917 67.304C333.981 67.16 334.029 67.016 334.061 66.872C334.093 66.712 334.109 66.568 334.109 66.44V60.68L328.397 66.272V66.44C328.397 66.568 328.413 66.712 328.445 66.872C328.477 67.016 328.525 67.152 328.589 67.28C328.653 67.408 328.725 67.52 328.805 67.616C328.901 67.712 329.005 67.76 329.117 67.76V68H326.069V67.76C326.181 67.76 326.285 67.72 326.381 67.64C326.477 67.544 326.557 67.432 326.621 67.304C326.685 67.16 326.733 67.016 326.765 66.872C326.797 66.712 326.813 66.568 326.813 66.44V59.408C326.813 59.296 326.797 59.168 326.765 59.024C326.733 58.88 326.685 58.744 326.621 58.616C326.557 58.488 326.477 58.384 326.381 58.304C326.285 58.208 326.181 58.16 326.069 58.16V57.92H329.117V58.16C328.989 58.16 328.877 58.208 328.781 58.304C328.701 58.384 328.629 58.488 328.565 58.616C328.517 58.744 328.477 58.88 328.445 59.024C328.413 59.168 328.397 59.296 328.397 59.408V65.144L334.109 59.552V59.408C334.109 59.296 334.093 59.168 334.061 59.024C334.029 58.88 333.981 58.744 333.917 58.616C333.853 58.488 333.773 58.384 333.677 58.304C333.581 58.208 333.477 58.16 333.365 58.16V57.92H336.437V58.16C336.309 58.16 336.189 58.208 336.077 58.304C335.981 58.384 335.901 58.488 335.837 58.616C335.789 58.744 335.749 58.88 335.717 59.024C335.685 59.168 335.669 59.296 335.669 59.408V66.44ZM347.124 66.44C347.124 66.568 347.14 66.712 347.172 66.872C347.204 67.016 347.252 67.16 347.316 67.304C347.396 67.432 347.476 67.544 347.556 67.64C347.652 67.72 347.764 67.76 347.892 67.76V68H344.772V67.76C344.884 67.76 344.988 67.712 345.084 67.616C345.18 67.52 345.26 67.408 345.324 67.28C345.404 67.152 345.46 67.016 345.492 66.872C345.524 66.712 345.54 66.568 345.54 66.44V63.08C345.364 63.112 345.164 63.208 344.94 63.368C344.716 63.512 344.484 63.704 344.244 63.944C344.004 64.168 343.772 64.416 343.548 64.688C343.324 64.96 343.116 65.232 342.924 65.504C342.764 65.728 342.628 65.912 342.516 66.056C342.404 66.2 342.308 66.336 342.228 66.464C342.068 66.672 341.908 66.872 341.748 67.064C341.588 67.24 341.404 67.4 341.196 67.544C341.004 67.688 340.772 67.8 340.5 67.88C340.228 67.96 339.908 68 339.54 68H338.652V67.76C338.844 67.76 339.036 67.704 339.228 67.592C339.436 67.48 339.636 67.344 339.828 67.184C340.02 67.008 340.196 66.824 340.356 66.632C340.532 66.424 340.684 66.232 340.812 66.056L341.556 65.024C341.828 64.656 342.108 64.296 342.396 63.944C342.684 63.576 343.012 63.288 343.38 63.08C342.804 63.064 342.292 62.984 341.844 62.84C341.396 62.696 341.02 62.504 340.716 62.264C340.412 62.024 340.18 61.752 340.02 61.448C339.876 61.128 339.804 60.792 339.804 60.44C339.804 60.104 339.876 59.784 340.02 59.48C340.18 59.176 340.428 58.912 340.764 58.688C341.1 58.448 341.524 58.264 342.036 58.136C342.564 57.992 343.196 57.92 343.932 57.92H347.892V58.16C347.764 58.16 347.652 58.208 347.556 58.304C347.476 58.384 347.396 58.488 347.316 58.616C347.252 58.744 347.204 58.88 347.172 59.024C347.14 59.168 347.124 59.296 347.124 59.408V66.44ZM341.364 60.296C341.364 60.536 341.436 60.776 341.58 61.016C341.74 61.256 341.948 61.472 342.204 61.664C342.476 61.856 342.78 62.016 343.116 62.144C343.452 62.256 343.812 62.312 344.196 62.312H345.54V58.688H343.98C343.02 58.688 342.34 58.84 341.94 59.144C341.556 59.448 341.364 59.832 341.364 60.296Z" fill="white"/>
</svg>
